<svg width="38" height="38" viewBox="0 0 38 38" fill="none" xmlns="http://www.w3.org/2000/svg">
<path d="M33.3025 0H3.99631C1.79001 0 0 1.79001 0 3.99631V33.3025C0 35.5088 1.79001 37.2989 3.99631 37.2989H33.3025C35.5088 37.2989 37.2989 35.5088 37.2989 33.3025V3.99631C37.2989 1.79001 35.5088 0 33.3025 0ZM23.087 31.9455C22.3876 32.0704 22.1295 31.6374 22.1295 31.2794C22.1295 30.8298 22.1462 28.532 22.1462 26.6753C22.1462 25.3765 21.7133 24.5523 21.2054 24.1194C24.2859 23.778 27.5329 23.3534 27.5329 18.0333C27.5329 16.5181 26.9917 15.7604 26.1092 14.7863C26.2507 14.4283 26.7253 12.9547 25.9677 11.0398C24.8104 10.6818 22.1628 12.5301 22.1628 12.5301C21.0639 12.222 19.8733 12.0638 18.6994 12.0638C17.5255 12.0638 16.3349 12.222 15.2359 12.5301C15.2359 12.5301 12.5884 10.6818 11.4311 11.0398C10.6735 12.9464 11.1397 14.42 11.2896 14.7863C10.407 15.7604 9.99076 16.5181 9.99076 18.0333C9.99076 23.3284 13.0962 23.778 16.1767 24.1194C15.7771 24.4774 15.4191 25.0935 15.2942 25.976C14.5033 26.334 12.4801 26.9501 11.2729 24.8187C10.5153 23.5033 9.14987 23.395 9.14987 23.395C7.80112 23.3784 9.05829 24.2443 9.05829 24.2443C9.95746 24.6605 10.5902 26.2591 10.5902 26.2591C11.3978 28.7318 15.2609 27.8992 15.2609 27.8992C15.2609 29.0565 15.2775 30.9381 15.2775 31.2794C15.2775 31.6374 15.0278 32.0704 14.3201 31.9455C8.82518 30.1055 4.97873 24.877 4.97873 18.766C4.97873 11.123 10.8233 5.32008 18.4663 5.32008C26.1092 5.32008 32.3035 11.123 32.3035 18.766C32.3118 24.877 28.5819 30.1138 23.087 31.9455ZM14.9195 26.8585C14.7614 26.8918 14.6115 26.8252 14.5948 26.717C14.5782 26.5921 14.6864 26.4839 14.8446 26.4505C15.0028 26.4339 15.1527 26.5005 15.1693 26.6087C15.1943 26.717 15.0861 26.8252 14.9195 26.8585ZM14.1286 26.7836C14.1286 26.8918 14.0037 26.9834 13.8372 26.9834C13.654 27 13.5292 26.9085 13.5292 26.7836C13.5292 26.6753 13.654 26.5838 13.8206 26.5838C13.9787 26.5671 14.1286 26.6587 14.1286 26.7836ZM12.988 26.692C12.9547 26.8002 12.7882 26.8502 12.6466 26.8002C12.4885 26.7669 12.3802 26.642 12.4135 26.5338C12.4468 26.4256 12.6133 26.3756 12.7549 26.4089C12.9214 26.4589 13.0296 26.5838 12.988 26.692ZM11.9639 26.2424C11.889 26.334 11.7308 26.3173 11.6059 26.1925C11.4811 26.0842 11.4478 25.926 11.531 25.8511C11.6059 25.7595 11.7641 25.7762 11.889 25.9011C11.9972 26.0093 12.0389 26.1758 11.9639 26.2424ZM11.2063 25.4848C11.1314 25.5347 10.9898 25.4848 10.8983 25.3599C10.8067 25.235 10.8067 25.0935 10.8983 25.0352C10.9898 24.9603 11.1314 25.0185 11.2063 25.1434C11.2979 25.2683 11.2979 25.4182 11.2063 25.4848ZM10.6651 24.6772C10.5902 24.7521 10.4653 24.7105 10.3737 24.6272C10.2822 24.519 10.2655 24.3941 10.3404 24.3358C10.4154 24.2609 10.5403 24.3025 10.6318 24.3858C10.7234 24.494 10.7401 24.6189 10.6651 24.6772ZM10.1073 24.0611C10.074 24.136 9.96579 24.1527 9.8742 24.0944C9.76597 24.0444 9.71602 23.9529 9.74932 23.8779C9.78262 23.828 9.8742 23.803 9.98244 23.8446C10.0907 23.9029 10.1406 23.9945 10.1073 24.0611Z" fill="black"/>
</svg>
