<svg width="59" height="59" viewBox="0 0 59 59" fill="none" xmlns="http://www.w3.org/2000/svg">
<path d="M52.6786 0H6.32143C2.83147 0 0 2.83147 0 6.32143V52.6786C0 56.1685 2.83147 59 6.32143 59H52.6786C56.1685 59 59 56.1685 59 52.6786V6.32143C59 2.83147 56.1685 0 52.6786 0ZM36.5194 50.5319C35.4132 50.7295 35.0049 50.0446 35.0049 49.4784C35.0049 48.7672 35.0312 45.1324 35.0312 42.1955C35.0312 40.1411 34.3464 38.8373 33.5431 38.1525C38.4158 37.6125 43.552 36.9408 43.552 28.5254C43.552 26.1286 42.696 24.9301 41.3 23.3893C41.5239 22.823 42.2746 20.492 41.0761 17.4629C39.2455 16.8967 35.0576 19.8203 35.0576 19.8203C33.3192 19.333 31.4359 19.0828 29.579 19.0828C27.7221 19.0828 25.8388 19.333 24.1004 19.8203C24.1004 19.8203 19.9125 16.8967 18.0819 17.4629C16.8835 20.4788 17.621 22.8098 17.858 23.3893C16.4621 24.9301 15.8036 26.1286 15.8036 28.5254C15.8036 36.9013 20.7158 37.6125 25.5886 38.1525C24.9565 38.7188 24.3902 39.6933 24.1926 41.0893C22.9415 41.6556 19.7413 42.6301 17.8317 39.2587C16.6333 37.1779 14.4734 37.0067 14.4734 37.0067C12.34 36.9804 14.3286 38.35 14.3286 38.35C15.7509 39.0085 16.7518 41.5371 16.7518 41.5371C18.0292 45.4484 24.14 44.1315 24.14 44.1315C24.14 45.9621 24.1663 48.9384 24.1663 49.4784C24.1663 50.0446 23.7712 50.7295 22.6518 50.5319C13.9598 47.6214 7.87545 39.3509 7.87545 29.6844C7.87545 17.5946 17.1205 8.4154 29.2103 8.4154C41.3 8.4154 51.0982 17.5946 51.0982 29.6844C51.1114 39.3509 45.2114 47.6346 36.5194 50.5319ZM23.6 42.4853C23.3498 42.5379 23.1127 42.4326 23.0864 42.2614C23.06 42.0638 23.2313 41.8926 23.4815 41.84C23.7317 41.8136 23.9688 41.919 23.9951 42.0902C24.0346 42.2614 23.8634 42.4326 23.6 42.4853ZM22.3489 42.3667C22.3489 42.5379 22.1513 42.6828 21.8879 42.6828C21.5982 42.7092 21.4007 42.5643 21.4007 42.3667C21.4007 42.1955 21.5982 42.0507 21.8616 42.0507C22.1118 42.0243 22.3489 42.1692 22.3489 42.3667ZM20.5446 42.2219C20.492 42.3931 20.2286 42.4721 20.0047 42.3931C19.7545 42.3404 19.5833 42.1429 19.6359 41.9717C19.6886 41.8004 19.952 41.7214 20.1759 41.7741C20.4393 41.8531 20.6105 42.0507 20.5446 42.2219ZM18.9248 41.5107C18.8062 41.6556 18.556 41.6292 18.3585 41.4317C18.1609 41.2605 18.1083 41.0103 18.24 40.8917C18.3585 40.7469 18.6087 40.7732 18.8063 40.9708C18.9775 41.142 19.0433 41.4054 18.9248 41.5107ZM17.7263 40.3123C17.6078 40.3913 17.3839 40.3123 17.2391 40.1147C17.0942 39.9172 17.0942 39.6933 17.2391 39.6011C17.3839 39.4826 17.6078 39.5748 17.7263 39.7723C17.8712 39.9699 17.8712 40.2069 17.7263 40.3123ZM16.8703 39.0348C16.7518 39.1533 16.5542 39.0875 16.4094 38.9558C16.2645 38.7846 16.2382 38.5871 16.3567 38.4949C16.4752 38.3763 16.6728 38.4422 16.8176 38.5739C16.9625 38.7451 16.9888 38.9426 16.8703 39.0348ZM15.9879 38.0603C15.9353 38.1788 15.7641 38.2051 15.6192 38.1129C15.448 38.0339 15.369 37.8891 15.4217 37.7705C15.4743 37.6915 15.6192 37.652 15.7904 37.7179C15.9616 37.81 16.0406 37.9549 15.9879 38.0603Z" fill="white"/>
</svg>
