<svg width="63" height="63" viewBox="0 0 63 63" fill="none" xmlns="http://www.w3.org/2000/svg">
<rect width="63" height="63" fill="black"/>
<path fill-rule="evenodd" clip-rule="evenodd" d="M19.5956 2.79825C22.6747 2.6565 23.6565 2.625 31.5 2.625C39.3435 2.625 40.3252 2.65912 43.4017 2.79825C46.4782 2.93737 48.5782 3.42825 50.4157 4.13963C52.3399 4.86675 54.0855 6.00337 55.5292 7.47337C56.9992 8.9145 58.1332 10.6575 58.8577 12.5843C59.5717 14.4218 60.06 16.5218 60.2017 19.593C60.3435 22.6774 60.375 23.6591 60.375 31.5C60.375 39.3435 60.3409 40.3252 60.2017 43.4044C60.0626 46.4756 59.5717 48.5756 58.8577 50.4131C58.1332 52.3401 56.9974 54.086 55.5292 55.5292C54.0855 56.9992 52.3399 58.1333 50.4157 58.8578C48.5782 59.5718 46.4782 60.06 43.407 60.2018C40.3252 60.3435 39.3435 60.375 31.5 60.375C23.6565 60.375 22.6747 60.3409 19.5956 60.2018C16.5244 60.0626 14.4244 59.5718 12.5869 58.8578C10.6599 58.1332 8.91403 56.9973 7.47075 55.5292C6.00175 54.0873 4.86495 52.3422 4.13962 50.4157C3.42825 48.5782 2.94 46.4782 2.79825 43.407C2.6565 40.3226 2.625 39.3409 2.625 31.5C2.625 23.6565 2.65912 22.6747 2.79825 19.5982C2.93737 16.5217 3.42825 14.4218 4.13962 12.5843C4.86602 10.6577 6.00369 8.9127 7.47337 7.47075C8.91461 6.00207 10.6587 4.86529 12.5842 4.13963C14.4217 3.42825 16.5217 2.94 19.593 2.79825H19.5956ZM43.1681 7.99575C40.1231 7.85662 39.2096 7.82775 31.5 7.82775C23.7904 7.82775 22.8769 7.85662 19.8319 7.99575C17.0152 8.12437 15.4875 8.59425 14.469 8.99062C13.1224 9.51562 12.159 10.1378 11.1484 11.1484C10.1904 12.0804 9.4531 13.215 8.99062 14.469C8.59425 15.4875 8.12437 17.0152 7.99575 19.8319C7.85662 22.8769 7.82775 23.7904 7.82775 31.5C7.82775 39.2096 7.85662 40.1231 7.99575 43.1681C8.12437 45.9848 8.59425 47.5125 8.99062 48.531C9.45262 49.7831 10.1902 50.9198 11.1484 51.8516C12.0802 52.8098 13.2169 53.5474 14.469 54.0094C15.4875 54.4058 17.0152 54.8756 19.8319 55.0042C22.8769 55.1434 23.7877 55.1722 31.5 55.1722C39.2122 55.1722 40.1231 55.1434 43.1681 55.0042C45.9847 54.8756 47.5125 54.4058 48.531 54.0094C49.8776 53.4844 50.841 52.8623 51.8516 51.8516C52.8097 50.9198 53.5474 49.7831 54.0094 48.531C54.4057 47.5125 54.8756 45.9848 55.0042 43.1681C55.1434 40.1231 55.1722 39.2096 55.1722 31.5C55.1722 23.7904 55.1434 22.8769 55.0042 19.8319C54.8756 17.0152 54.4057 15.4875 54.0094 14.469C53.4844 13.1224 52.8622 12.159 51.8516 11.1484C50.9196 10.1904 49.785 9.45318 48.531 8.99062C47.5125 8.59425 45.9847 8.12437 43.1681 7.99575ZM27.8119 40.4014C29.8716 41.2588 32.1651 41.3745 34.3007 40.7288C36.4363 40.083 38.2814 38.7159 39.521 36.8609C40.7605 35.0059 41.3176 32.778 41.0971 30.5579C40.8766 28.3378 39.8921 26.2631 38.3119 24.6881C37.3045 23.6814 36.0864 22.9105 34.7454 22.431C33.4043 21.9515 31.9736 21.7753 30.5563 21.9151C29.139 22.0549 27.7703 22.5072 26.5487 23.2395C25.3272 23.9717 24.2832 24.9657 23.4919 26.1499C22.7006 27.334 22.1817 28.6789 21.9726 30.0876C21.7635 31.4964 21.8693 32.934 22.2824 34.297C22.6956 35.6599 23.4058 36.9144 24.3619 37.9699C25.318 39.0254 26.4963 39.8559 27.8119 40.4014ZM21.0052 21.0052C22.3834 19.6271 24.0196 18.5338 25.8203 17.7879C27.621 17.0421 29.5509 16.6582 31.5 16.6582C33.4491 16.6582 35.379 17.0421 37.1797 17.7879C38.9804 18.5338 40.6166 19.6271 41.9947 21.0052C43.3729 22.3834 44.4662 24.0196 45.212 25.8203C45.9579 27.621 46.3418 29.5509 46.3418 31.5C46.3418 33.4491 45.9579 35.379 45.212 37.1797C44.4662 38.9804 43.3729 40.6166 41.9947 41.9948C39.2114 44.7781 35.4363 46.3418 31.5 46.3418C27.5637 46.3418 23.7886 44.7781 21.0052 41.9948C18.2219 39.2114 16.6582 35.4363 16.6582 31.5C16.6582 27.5637 18.2219 23.7886 21.0052 21.0052ZM49.6335 18.8685C49.975 18.5463 50.2484 18.1589 50.4375 17.7292C50.6267 17.2995 50.7276 16.8361 50.7345 16.3667C50.7413 15.8972 50.6539 15.4312 50.4774 14.9961C50.3009 14.5611 50.0389 14.1658 49.7069 13.8339C49.3749 13.5019 48.9797 13.2399 48.5446 13.0634C48.1096 12.8869 47.6435 12.7994 47.1741 12.8063C46.7046 12.8131 46.2413 12.9141 45.8116 13.1032C45.3818 13.2923 44.9944 13.5657 44.6722 13.9072C44.0457 14.5715 43.7027 15.4537 43.716 16.3667C43.7293 17.2797 44.0979 18.1516 44.7435 18.7972C45.3892 19.4429 46.2611 19.8115 47.1741 19.8248C48.0871 19.8381 48.9693 19.4951 49.6335 18.8685Z" fill="white"/>
</svg>
