<svg width="50" height="50" viewBox="0 0 50 50" fill="none" xmlns="http://www.w3.org/2000/svg">
<path d="M43.6395 17.302C43.6185 15.7241 43.3231 14.1619 42.7666 12.6853C42.284 11.4398 41.5469 10.3087 40.6023 9.36414C39.6578 8.41963 38.5267 7.68252 37.2812 7.19991C35.8235 6.65274 34.2836 6.35687 32.727 6.32491C30.7228 6.23533 30.0874 6.21033 24.9999 6.21033C19.9124 6.21033 19.2603 6.21033 17.2707 6.32491C15.7148 6.35711 14.1756 6.65297 12.7187 7.19991C11.4729 7.68218 10.3416 8.41917 9.39705 9.36373C8.4525 10.3083 7.7155 11.4396 7.23324 12.6853C6.68497 14.1419 6.38974 15.6814 6.36032 17.2374C6.27074 19.2437 6.24365 19.8791 6.24365 24.9666C6.24365 30.0541 6.24365 30.7041 6.36032 32.6957C6.39157 34.2541 6.68532 35.7916 7.23324 37.252C7.71631 38.4973 8.45385 39.6282 9.39873 40.5724C10.3436 41.5165 11.475 42.2532 12.7207 42.7353C14.1737 43.3045 15.7132 43.6215 17.2728 43.6728C19.2791 43.7624 19.9145 43.7895 25.002 43.7895C30.0895 43.7895 30.7416 43.7895 32.7312 43.6728C34.2877 43.6422 35.8277 43.347 37.2853 42.7999C38.5305 42.3167 39.6614 41.5794 40.6058 40.635C41.5503 39.6906 42.2876 38.5597 42.7707 37.3145C43.3187 35.8562 43.6124 34.3187 43.6437 32.7582C43.7332 30.7541 43.7603 30.1187 43.7603 25.0291C43.7562 19.9416 43.7562 19.2957 43.6395 17.302V17.302ZM24.9874 34.5874C19.6666 34.5874 15.3562 30.277 15.3562 24.9562C15.3562 19.6353 19.6666 15.3249 24.9874 15.3249C27.5418 15.3249 29.9915 16.3396 31.7977 18.1458C33.6039 19.9521 34.6187 22.4018 34.6187 24.9562C34.6187 27.5105 33.6039 29.9603 31.7977 31.7665C29.9915 33.5727 27.5418 34.5874 24.9874 34.5874V34.5874ZM35.002 17.2145C33.7582 17.2145 32.7562 16.2103 32.7562 14.9687C32.7562 14.6739 32.8142 14.382 32.927 14.1096C33.0398 13.8373 33.2052 13.5898 33.4136 13.3814C33.6221 13.1729 33.8696 13.0076 34.1419 12.8947C34.4143 12.7819 34.7062 12.7239 35.0009 12.7239C35.2957 12.7239 35.5876 12.7819 35.86 12.8947C36.1323 13.0076 36.3798 13.1729 36.5883 13.3814C36.7967 13.5898 36.9621 13.8373 37.0749 14.1096C37.1877 14.382 37.2457 14.6739 37.2457 14.9687C37.2457 16.2103 36.2416 17.2145 35.002 17.2145Z" fill="black"/>
<path d="M24.9877 31.2125C28.4429 31.2125 31.2439 28.4114 31.2439 24.9562C31.2439 21.501 28.4429 18.7 24.9877 18.7C21.5325 18.7 18.7314 21.501 18.7314 24.9562C18.7314 28.4114 21.5325 31.2125 24.9877 31.2125Z" fill="black"/>
</svg>
