<svg width="37" height="37" viewBox="0 0 37 37" fill="none" xmlns="http://www.w3.org/2000/svg">
<path fill-rule="evenodd" clip-rule="evenodd" d="M4.51478e-07 3.05013C4.51478e-07 2.24119 0.321352 1.46538 0.893363 0.893366C1.46537 0.321356 2.24119 4.06625e-06 3.05013 4.06625e-06H33.4552C33.8561 -0.000650685 34.2531 0.0777723 34.6237 0.230783C34.9942 0.383793 35.3309 0.608387 35.6146 0.891704C35.8982 1.17502 36.1232 1.5115 36.2766 1.88187C36.43 2.25225 36.5088 2.64924 36.5086 3.05013V33.4552C36.5091 33.8561 36.4304 34.2533 36.2772 34.6238C36.124 34.9944 35.8993 35.3311 35.6158 35.6147C35.3324 35.8983 34.9958 36.1232 34.6253 36.2766C34.2549 36.43 33.8578 36.5088 33.4568 36.5086H3.05013C2.64944 36.5086 2.25268 36.4297 1.88251 36.2763C1.51235 36.1229 1.17603 35.8981 0.892776 35.6147C0.609523 35.3313 0.384887 34.9948 0.231701 34.6246C0.0785156 34.2543 -0.000217551 33.8575 4.51478e-07 33.4568V3.05013ZM14.4508 13.9197H19.3944V16.4023C20.108 14.9752 21.9334 13.6907 24.6765 13.6907C29.9354 13.6907 31.1817 16.5334 31.1817 21.7492V31.4107H25.8597V22.9374C25.8597 19.9669 25.1461 18.2908 23.334 18.2908C20.8199 18.2908 19.7744 20.098 19.7744 22.9374V31.4107H14.4508V13.9197ZM5.32362 31.1833H10.6472V13.6907H5.32362V31.1817V31.1833ZM11.4089 7.98544C11.419 8.44125 11.3379 8.89448 11.1704 9.31852C11.0029 9.74257 10.7524 10.1289 10.4336 10.4548C10.1147 10.7807 9.73403 11.0397 9.31377 11.2165C8.89352 11.3933 8.44219 11.4843 7.98626 11.4843C7.53034 11.4843 7.079 11.3933 6.65875 11.2165C6.2385 11.0397 5.85779 10.7807 5.53897 10.4548C5.22015 10.1289 4.96964 9.74257 4.80215 9.31852C4.63465 8.89448 4.55354 8.44125 4.56358 7.98544C4.58328 7.09073 4.95254 6.23931 5.59227 5.61351C6.232 4.98771 7.09134 4.63729 7.98626 4.63729C8.88118 4.63729 9.74052 4.98771 10.3803 5.61351C11.02 6.23931 11.3892 7.09073 11.4089 7.98544Z" fill="black"/>
</svg>
