<svg width="63" height="63" viewBox="0 0 63 63" fill="none" xmlns="http://www.w3.org/2000/svg">
<path fill-rule="evenodd" clip-rule="evenodd" d="M2.625 7.44976C2.625 6.17015 3.13332 4.94296 4.03814 4.03814C4.94295 3.13333 6.17015 2.62501 7.44975 2.62501H55.545C56.1791 2.62397 56.8072 2.74802 57.3934 2.99006C57.9795 3.23209 58.5121 3.58736 58.9608 4.03551C59.4094 4.48367 59.7653 5.01592 60.0079 5.60178C60.2506 6.18765 60.3753 6.81562 60.375 7.44976V55.545C60.3757 56.1793 60.2513 56.8074 60.009 57.3936C59.7667 57.9797 59.4112 58.5123 58.9628 58.961C58.5144 59.4096 57.982 59.7654 57.396 60.008C56.81 60.2506 56.1819 60.3754 55.5476 60.375H7.44975C6.81593 60.375 6.18833 60.2501 5.60279 60.0075C5.01726 59.7649 4.48526 59.4093 4.03721 58.961C3.58916 58.5127 3.23382 57.9805 2.99151 57.3948C2.7492 56.8091 2.62466 56.1815 2.625 55.5476V7.44976ZM25.4835 24.6435H33.3034V28.5705C34.4321 26.313 37.3196 24.2813 41.6588 24.2813C49.9774 24.2813 51.9488 28.7779 51.9488 37.0283V52.311H43.5304V38.9078C43.5304 34.209 42.4016 31.5578 39.5351 31.5578C35.5583 31.5578 33.9045 34.4164 33.9045 38.9078V52.311H25.4835V24.6435ZM11.046 51.9514H19.467V24.2813H11.046V51.9488V51.9514ZM20.6719 15.2565C20.6878 15.9775 20.5595 16.6945 20.2945 17.3652C20.0296 18.036 19.6333 18.6471 19.129 19.1626C18.6247 19.6781 18.0225 20.0878 17.3577 20.3674C16.6929 20.6471 15.979 20.7911 15.2578 20.7911C14.5366 20.7911 13.8227 20.6471 13.1579 20.3674C12.4932 20.0878 11.891 19.6781 11.3866 19.1626C10.8823 18.6471 10.4861 18.036 10.2211 17.3652C9.95617 16.6945 9.82787 15.9775 9.84375 15.2565C9.87492 13.8413 10.459 12.4945 11.471 11.5046C12.4829 10.5147 13.8422 9.96035 15.2578 9.96035C16.6734 9.96035 18.0327 10.5147 19.0447 11.5046C20.0566 12.4945 20.6407 13.8413 20.6719 15.2565Z" fill="white"/>
</svg>
