<svg width="41" height="49" viewBox="0 0 41 49" fill="none" xmlns="http://www.w3.org/2000/svg">
<mask id="mask0" mask-type="alpha" maskUnits="userSpaceOnUse" x="13" y="22" width="28" height="18">
<path d="M13.8955 39.5415L13.8955 22.1251H22.6037H31.3119V39.5415H13.8955Z" fill="#C4C4C4"/>
<path d="M31.3098 22.1251C36.1192 22.1251 40.018 26.0239 40.018 30.8333C40.018 35.6427 36.1192 39.5415 31.3098 39.5415C26.5004 39.5415 22.6016 35.6427 22.6016 30.8333C22.6016 26.0239 26.5004 22.1251 31.3098 22.1251Z" fill="#C4C4C4"/>
</mask>
<g mask="url(#mask0)">
<path fill-rule="evenodd" clip-rule="evenodd" d="M22.6016 30.8333V39.5415H31.3098V30.8333H22.6016ZM31.3142 30.8333V39.5415H40.0224V30.8333H31.3142Z" fill="white"/>
</g>
<mask id="mask1" mask-type="alpha" maskUnits="userSpaceOnUse" x="13" y="22" width="19" height="27">
<path d="M31.3135 48.2076L13.897 48.2076L13.897 39.4994L13.897 30.7912L31.3135 30.7912L31.3135 48.2076Z" fill="#C4C4C4"/>
<path d="M13.897 30.7912C13.897 25.9818 17.7958 22.083 22.6053 22.083C27.4147 22.083 31.3135 25.9818 31.3135 30.7912C31.3135 35.6007 27.4147 39.4995 22.6053 39.4995C17.7958 39.4995 13.897 35.6007 13.897 30.7912Z" fill="#C4C4C4"/>
</mask>
<g mask="url(#mask1)">
<path fill-rule="evenodd" clip-rule="evenodd" d="M22.6053 39.4995L31.3135 39.4995L31.3135 30.7912L22.6053 30.7912L22.6053 39.4995ZM22.6051 30.7912L31.3133 30.7912L31.3133 22.083L22.6051 22.083L22.6051 30.7912Z" fill="white"/>
</g>
<mask id="mask2" mask-type="alpha" maskUnits="userSpaceOnUse" x="8" y="0" width="19" height="27">
<path d="M8.9209 26.7665L26.7652 26.7665L26.7652 17.8444V8.92221L8.9209 8.92221L8.9209 26.7665Z" fill="#C4C4C4"/>
<path d="M26.7643 8.92213C26.7643 3.99456 22.7697 -2.9454e-05 17.8421 -2.9454e-05C12.9145 -2.9454e-05 8.91992 3.99456 8.91992 8.92213C8.91992 13.8497 12.9145 17.8443 17.8421 17.8443C22.7697 17.8443 26.7643 13.8497 26.7643 8.92213Z" fill="#C4C4C4"/>
</mask>
<g mask="url(#mask2)">
<path fill-rule="evenodd" clip-rule="evenodd" d="M17.8434 17.8443L8.92128 17.8443L8.92128 8.92229H8.91992L8.91992 0.000128856L17.8421 0.000128856L17.8421 8.92213H17.8434V17.8443Z" fill="white"/>
</g>
<mask id="mask3" mask-type="alpha" maskUnits="userSpaceOnUse" x="0" y="0" width="27" height="18">
<path d="M26.7656 17.931L26.7656 0.0867015L17.8435 0.0867015H8.9213L8.9213 17.931L26.7656 17.931Z" fill="#C4C4C4"/>
<path d="M8.92256 0.0867015C3.99499 0.0867015 0.000397792 4.08129 0.000397792 9.00887C0.000397792 13.9364 3.99499 17.931 8.92256 17.931C13.8501 17.931 17.8447 13.9364 17.8447 9.00887C17.8447 4.08129 13.8501 0.0867015 8.92256 0.0867015Z" fill="#C4C4C4"/>
</mask>
<g mask="url(#mask3)">
<path fill-rule="evenodd" clip-rule="evenodd" d="M17.8447 9.00887L17.8447 17.931L8.92256 17.931V17.931L0.000664821 17.931L0.000664821 9.00883L8.92283 9.00883V9.00887L17.8447 9.00887Z" fill="white"/>
</g>
<rect x="20.8604" y="0.321167" width="17.9722" height="17.9722" rx="8.98609" fill="white"/>
<mask id="mask4" mask-type="alpha" maskUnits="userSpaceOnUse" x="1" y="22" width="28" height="18">
<path d="M28.1689 22.1083V39.9527H19.2468H10.3246V22.1083H28.1689Z" fill="#C4C4C4"/>
<path d="M10.3269 39.9526C5.39928 39.9526 1.40469 35.958 1.40469 31.0304C1.40469 26.1029 5.39928 22.1083 10.3269 22.1083C15.2544 22.1083 19.249 26.1029 19.249 31.0304C19.249 35.958 15.2544 39.9526 10.3269 39.9526Z" fill="#C4C4C4"/>
</mask>
<g mask="url(#mask4)">
<path fill-rule="evenodd" clip-rule="evenodd" d="M19.249 31.0304V22.1083H10.3269V31.0304H19.249ZM10.3263 31.0305V22.1083H1.40412V31.0305H10.3263Z" fill="white"/>
</g>
<mask id="mask5" mask-type="alpha" maskUnits="userSpaceOnUse" x="1" y="21" width="28" height="19">
<path d="M28.1689 39.6063L28.1689 21.7619L19.2468 21.7619L10.3246 21.7619L10.3246 39.6063L28.1689 39.6063Z" fill="#C4C4C4"/>
<path d="M10.3269 21.7619C5.39928 21.7619 1.40469 25.7565 1.40469 30.684C1.40469 35.6116 5.39928 39.6062 10.3269 39.6062C15.2544 39.6062 19.249 35.6116 19.249 30.684C19.249 25.7565 15.2544 21.7619 10.3269 21.7619Z" fill="#C4C4C4"/>
</mask>
<g mask="url(#mask5)">
<path fill-rule="evenodd" clip-rule="evenodd" d="M19.249 30.684L19.249 39.6062H10.3269L10.3269 30.684L19.249 30.684ZM10.3263 30.684L10.3263 39.6062H1.40412L1.40412 30.684L10.3263 30.684Z" fill="white"/>
</g>
<mask id="mask6" mask-type="alpha" maskUnits="userSpaceOnUse" x="7" y="31" width="18" height="6">
<path d="M24.2734 36.2167V31.7524H18.7873L13.3012 31.7524L13.3012 36.2167H24.2734Z" fill="#C4C4C4"/>
<path d="M13.2981 31.7524C10.2682 31.7524 7.81194 32.7517 7.81194 33.9846C7.81194 35.2174 10.2682 36.2167 13.2981 36.2167C16.328 36.2167 18.7842 35.2174 18.7842 33.9846C18.7842 32.7517 16.328 31.7524 13.2981 31.7524Z" fill="#C4C4C4"/>
</mask>
<g mask="url(#mask6)">
<path fill-rule="evenodd" clip-rule="evenodd" d="M21.626 34.0251V38.4597H14.1393V38.4596H6.6545L6.6545 34.0251L14.1412 34.0251V34.0251H21.626Z" fill="black"/>
</g>
</svg>
