<svg width="250" height="84" viewBox="0 0 250 84" fill="none" xmlns="http://www.w3.org/2000/svg">
<mask id="mask0" mask-type="alpha" maskUnits="userSpaceOnUse" x="168" y="1" width="82" height="55">
<path d="M168 55.4V1.13174H195.134L222.268 1.13174V55.4L168 55.4Z" fill="#C4C4C4"/>
<path d="M222.268 1.13174C237.254 1.13174 249.402 13.2801 249.402 28.2659C249.402 43.2517 237.254 55.4 222.268 55.4C207.282 55.4 195.134 43.2517 195.134 28.2659C195.134 13.2801 207.282 1.13174 222.268 1.13174Z" fill="#C4C4C4"/>
</mask>
<g mask="url(#mask0)">
<path fill-rule="evenodd" clip-rule="evenodd" d="M195.134 28.2658V55.4H222.268V28.2658L195.134 28.2658ZM222.268 28.2659V55.4L249.403 55.4V28.2659H222.268Z" fill="black"/>
</g>
<mask id="mask1" mask-type="alpha" maskUnits="userSpaceOnUse" x="168" y="1" width="55" height="82">
<path d="M222.269 82.4025L168 82.4025V55.2683L168 28.1342L222.269 28.1342L222.269 82.4025Z" fill="#C4C4C4"/>
<path d="M168 28.1343C168 13.1485 180.149 1.00014 195.134 1.00014C210.12 1.00014 222.269 13.1485 222.269 28.1343C222.269 43.1201 210.12 55.2684 195.134 55.2684C180.149 55.2684 168 43.1201 168 28.1343Z" fill="#C4C4C4"/>
</mask>
<g mask="url(#mask1)">
<path fill-rule="evenodd" clip-rule="evenodd" d="M195.134 55.2684L222.269 55.2684L222.269 28.1343L195.134 28.1343L195.134 55.2684ZM195.134 28.1342L222.268 28.1342L222.268 1.00005L195.134 1.00005L195.134 28.1342Z" fill="black"/>
</g>
<mask id="mask2" mask-type="alpha" maskUnits="userSpaceOnUse" x="27" y="0" width="57" height="84">
<path d="M27.8013 83.4025L83.4029 83.4025V55.6017L83.4029 27.8008L27.8013 27.8008L27.8013 83.4025Z" fill="#C4C4C4"/>
<path d="M83.4024 27.8008C83.4024 12.4468 70.9556 -5.33848e-05 55.6016 -5.33848e-05C40.2476 -5.33848e-05 27.8008 12.4468 27.8008 27.8008C27.8008 43.1547 40.2476 55.6016 55.6016 55.6016C70.9556 55.6016 83.4024 43.1547 83.4024 27.8008Z" fill="#C4C4C4"/>
</mask>
<g mask="url(#mask2)">
<path fill-rule="evenodd" clip-rule="evenodd" d="M55.602 55.6016L27.8012 55.6016L27.8012 27.8008H27.8008L27.8008 1.09435e-05L55.6016 1.09435e-05L55.6016 27.8008H55.602V55.6016Z" fill="black"/>
</g>
<mask id="mask3" mask-type="alpha" maskUnits="userSpaceOnUse" x="0" y="0" width="84" height="56">
<path d="M83.4023 55.8716L83.4023 0.269966L55.6015 0.269966L27.8007 0.269966L27.8007 55.8716L83.4023 55.8716Z" fill="#C4C4C4"/>
<path d="M27.8008 0.269844C12.4468 0.269844 -5.39063e-05 12.7167 -5.39063e-05 28.0707C-5.39063e-05 43.4246 12.4468 55.8715 27.8008 55.8715C43.1547 55.8715 55.6016 43.4246 55.6016 28.0707C55.6016 12.7167 43.1547 0.269844 27.8008 0.269844Z" fill="#C4C4C4"/>
</mask>
<g mask="url(#mask3)">
<path fill-rule="evenodd" clip-rule="evenodd" d="M55.6016 28.0707L55.6016 55.8715L27.8008 55.8715L27.8008 55.8714L-5.00916e-05 55.8714L-5.00916e-05 28.0706L27.8008 28.0706L27.8008 28.0707L55.6016 28.0707Z" fill="black"/>
</g>
<rect x="65" y="1" width="56" height="56" rx="28" fill="black"/>
<mask id="mask4" mask-type="alpha" maskUnits="userSpaceOnUse" x="130" y="1" width="84" height="56">
<path d="M213.402 1.07959V56.6812H185.601L157.8 56.6812V1.07959L213.402 1.07959Z" fill="#C4C4C4"/>
<path d="M157.801 56.6812C142.447 56.6812 130 44.2344 130 28.8804C130 13.5264 142.447 1.07959 157.801 1.07959C173.155 1.07959 185.602 13.5264 185.602 28.8804C185.602 44.2344 173.155 56.6812 157.801 56.6812Z" fill="#C4C4C4"/>
</mask>
<g mask="url(#mask4)">
<path fill-rule="evenodd" clip-rule="evenodd" d="M185.602 28.8804V1.07962L157.801 1.07962V28.8804L185.602 28.8804ZM157.8 28.8804V1.07959L129.999 1.07959V28.8804H157.8Z" fill="black"/>
</g>
<mask id="mask5" mask-type="alpha" maskUnits="userSpaceOnUse" x="130" y="0" width="84" height="56">
<path d="M213.402 55.6017L213.402 5.82216e-05L185.601 5.82216e-05L157.8 5.82216e-05V55.6017L213.402 55.6017Z" fill="#C4C4C4"/>
<path d="M157.801 5.44069e-05C142.447 5.44069e-05 130 12.4469 130 27.8009C130 43.1548 142.447 55.6017 157.801 55.6017C173.155 55.6017 185.602 43.1548 185.602 27.8009C185.602 12.4469 173.155 5.44069e-05 157.801 5.44069e-05Z" fill="#C4C4C4"/>
</mask>
<g mask="url(#mask5)">
<path fill-rule="evenodd" clip-rule="evenodd" d="M185.602 27.8009V55.6017L157.801 55.6017V27.8009L185.602 27.8009ZM157.8 27.8009V55.6017L129.999 55.6017V27.8009L157.8 27.8009Z" fill="black"/>
</g>
<mask id="mask6" mask-type="alpha" maskUnits="userSpaceOnUse" x="149" y="31" width="53" height="15">
<path d="M201.282 45.0404V31.1298L184.187 31.1298L167.093 31.1298V45.0404L201.282 45.0404Z" fill="#C4C4C4"/>
<path d="M167.093 31.1298C157.652 31.1298 149.999 34.2438 149.999 38.0851C149.999 41.9264 157.652 45.0404 167.093 45.0404C176.534 45.0404 184.188 41.9264 184.188 38.0851C184.188 34.2438 176.534 31.1298 167.093 31.1298Z" fill="#C4C4C4"/>
</mask>
<g mask="url(#mask6)">
<path fill-rule="evenodd" clip-rule="evenodd" d="M193.051 38.2113V52.029L169.723 52.029V38.2113L193.051 38.2113ZM146.395 38.2113L169.723 38.2113V52.0291L146.395 52.0291V38.2113Z" fill="white"/>
</g>
</svg>
