<svg width="115" height="39" viewBox="0 0 115 39" fill="none" xmlns="http://www.w3.org/2000/svg">
<mask id="mask0" mask-type="alpha" maskUnits="userSpaceOnUse" x="76" y="0" width="39" height="26">
<path d="M76.8047 25.3274V0.517424H89.2097L101.615 0.517424V25.3274L76.8047 25.3274Z" fill="#C4C4C4"/>
<path d="M101.615 0.517426C108.467 0.517426 114.02 6.07133 114.02 12.9224C114.02 19.7735 108.467 25.3274 101.615 25.3274C94.7643 25.3274 89.2104 19.7735 89.2104 12.9224C89.2104 6.07133 94.7643 0.517426 101.615 0.517426Z" fill="#C4C4C4"/>
</mask>
<g mask="url(#mask0)">
<path fill-rule="evenodd" clip-rule="evenodd" d="M89.2104 12.9224V25.3274H101.615V25.3274L114.02 25.3274V12.9224H101.615V12.9224L89.2104 12.9224Z" fill="white"/>
</g>
<mask id="mask1" mask-type="alpha" maskUnits="userSpaceOnUse" x="76" y="0" width="26" height="38">
<path d="M101.615 37.6721L76.8048 37.6721L76.8048 25.2671L76.8048 12.8621L101.615 12.8621L101.615 37.6721Z" fill="#C4C4C4"/>
<path d="M76.8053 12.8622C76.8053 6.01108 82.3592 0.457181 89.2102 0.457181C96.0613 0.457181 101.615 6.01108 101.615 12.8622C101.615 19.7132 96.0613 25.2672 89.2102 25.2672C82.3592 25.2672 76.8053 19.7132 76.8053 12.8622Z" fill="#C4C4C4"/>
</mask>
<g mask="url(#mask1)">
<path fill-rule="evenodd" clip-rule="evenodd" d="M89.2097 25.2672L101.615 25.2672L101.615 12.8622H101.615L101.615 0.457189L89.2102 0.457189L89.2102 12.8622H89.2097L89.2097 25.2672Z" fill="white"/>
</g>
<mask id="mask2" mask-type="alpha" maskUnits="userSpaceOnUse" x="12" y="0" width="27" height="39">
<path d="M12.7095 38.1293L38.129 38.1293V25.4196L38.129 12.7098L12.7095 12.7098L12.7095 38.1293Z" fill="#C4C4C4"/>
<path d="M38.129 12.7098C38.129 5.69035 32.4386 -2.29958e-06 25.4192 -2.29958e-06C18.3998 -2.29958e-06 12.7095 5.69035 12.7095 12.7098C12.7095 19.7292 18.3998 25.4195 25.4192 25.4195C32.4386 25.4195 38.129 19.7292 38.129 12.7098Z" fill="#C4C4C4"/>
</mask>
<g mask="url(#mask2)">
<path fill-rule="evenodd" clip-rule="evenodd" d="M25.4194 25.4195L12.7097 25.4195L12.7097 12.7098H12.7095L12.7095 3.20327e-05L25.4192 3.20327e-05L25.4192 12.7098H25.4194L25.4194 25.4195Z" fill="white"/>
</g>
<mask id="mask3" mask-type="alpha" maskUnits="userSpaceOnUse" x="0" y="0" width="39" height="26">
<path d="M38.1294 25.543L38.1294 0.123439L25.4196 0.123439L12.7099 0.123439L12.7099 25.543L38.1294 25.543Z" fill="#C4C4C4"/>
<path d="M12.7097 0.123411C5.69026 0.123411 -9.38523e-05 5.81377 -9.38523e-05 12.8332C-9.38523e-05 19.8526 5.69026 25.5429 12.7097 25.5429C19.7291 25.5429 25.4194 19.8526 25.4194 12.8332C25.4194 5.81377 19.7291 0.123411 12.7097 0.123411Z" fill="#C4C4C4"/>
</mask>
<g mask="url(#mask3)">
<path fill-rule="evenodd" clip-rule="evenodd" d="M25.4194 12.8332L25.4194 25.5429L12.7097 25.5429V25.5429L3.20327e-05 25.5429L3.20327e-05 12.8331L12.7098 12.8331V12.8332L25.4194 12.8332Z" fill="white"/>
</g>
<rect x="29.7163" y="0.457214" width="25.6017" height="25.6017" rx="12.8008" fill="white"/>
<mask id="mask4" mask-type="alpha" maskUnits="userSpaceOnUse" x="59" y="0" width="39" height="26">
<path d="M97.1294 0.493652V25.9132H84.4196L71.7099 25.9132V0.493652L97.1294 0.493652Z" fill="#C4C4C4"/>
<path d="M71.7097 25.9131C64.6903 25.9131 58.9999 20.2228 58.9999 13.2034C58.9999 6.18395 64.6903 0.493591 71.7097 0.493591C78.7291 0.493591 84.4194 6.18395 84.4194 13.2034C84.4194 20.2228 78.7291 25.9131 71.7097 25.9131Z" fill="#C4C4C4"/>
</mask>
<g mask="url(#mask4)">
<path fill-rule="evenodd" clip-rule="evenodd" d="M84.4194 13.2034V0.493602L71.7097 0.493602V13.2034L84.4194 13.2034ZM71.7091 13.2034V0.493591L58.9993 0.493591V13.2034H71.7091Z" fill="white"/>
</g>
<mask id="mask5" mask-type="alpha" maskUnits="userSpaceOnUse" x="59" y="0" width="39" height="26">
<path d="M97.1294 25.4196L97.1294 2.17653e-05L84.4196 2.17653e-05L71.7099 2.17653e-05V25.4196L97.1294 25.4196Z" fill="#C4C4C4"/>
<path d="M71.7097 -8.75229e-06C64.6903 -8.75229e-06 58.9999 5.69035 58.9999 12.7098C58.9999 19.7292 64.6903 25.4195 71.7097 25.4195C78.7291 25.4195 84.4194 19.7292 84.4194 12.7098C84.4194 5.69035 78.7291 -8.75229e-06 71.7097 -8.75229e-06Z" fill="#C4C4C4"/>
</mask>
<g mask="url(#mask5)">
<path fill-rule="evenodd" clip-rule="evenodd" d="M84.4194 12.7097V25.4195L71.7097 25.4195V12.7097L84.4194 12.7097ZM71.7091 12.7098V25.4195L58.9993 25.4195V12.7098L71.7091 12.7098Z" fill="white"/>
</g>
<mask id="mask6" mask-type="alpha" maskUnits="userSpaceOnUse" x="68" y="14" width="24" height="7">
<path d="M91.5884 20.5913V14.2317L83.7733 14.2317H75.9583V20.5913L91.5884 20.5913Z" fill="#C4C4C4"/>
<path d="M75.9579 14.2317C71.6417 14.2317 68.1428 15.6553 68.1428 17.4115C68.1428 19.1676 71.6417 20.5913 75.9579 20.5913C80.274 20.5913 83.7729 19.1676 83.7729 17.4115C83.7729 15.6553 80.274 14.2317 75.9579 14.2317Z" fill="#C4C4C4"/>
</mask>
<g mask="url(#mask6)">
<path fill-rule="evenodd" clip-rule="evenodd" d="M87.8262 17.4692V23.7863L77.1612 23.7863V17.4692L87.8262 17.4692ZM77.16 17.4692V23.7863L66.4951 23.7863V17.4692L77.16 17.4692Z" fill="black"/>
</g>
</svg>
