<svg width="121" height="146" viewBox="0 0 121 146" fill="none" xmlns="http://www.w3.org/2000/svg">
<mask id="mask0" mask-type="alpha" maskUnits="userSpaceOnUse" x="38" y="64" width="82" height="55">
<path d="M38 118.4L38 64.1317H65.1341H92.2683V118.4H38Z" fill="#C4C4C4"/>
<path d="M92.2679 64.1317C107.254 64.1317 119.402 76.2801 119.402 91.2659C119.402 106.252 107.254 118.4 92.2679 118.4C77.2822 118.4 65.1338 106.252 65.1338 91.2659C65.1338 76.2801 77.2822 64.1317 92.2679 64.1317Z" fill="#C4C4C4"/>
</mask>
<g mask="url(#mask0)">
<path fill-rule="evenodd" clip-rule="evenodd" d="M65.1338 91.2658V118.4H92.2679V91.2658H65.1338ZM92.2684 91.2659V118.4H119.403V91.2659H92.2684Z" fill="black"/>
</g>
<mask id="mask1" mask-type="alpha" maskUnits="userSpaceOnUse" x="38" y="64" width="55" height="82">
<path d="M92.2686 145.402L38.0003 145.402L38.0003 118.268L38.0003 91.1342L92.2686 91.1342L92.2686 145.402Z" fill="#C4C4C4"/>
<path d="M38.0003 91.1343C38.0003 76.1485 50.1486 64.0001 65.1344 64.0001C80.1202 64.0001 92.2686 76.1485 92.2686 91.1343C92.2686 106.12 80.1202 118.268 65.1344 118.268C50.1486 118.268 38.0003 106.12 38.0003 91.1343Z" fill="#C4C4C4"/>
</mask>
<g mask="url(#mask1)">
<path fill-rule="evenodd" clip-rule="evenodd" d="M65.1344 118.268L92.2686 118.268L92.2686 91.1343L65.1344 91.1343L65.1344 118.268ZM65.1343 91.1342L92.2685 91.1342L92.2685 64L65.1343 64L65.1343 91.1342Z" fill="black"/>
</g>
<mask id="mask2" mask-type="alpha" maskUnits="userSpaceOnUse" x="27" y="0" width="57" height="84">
<path d="M27.8013 83.4025L83.4029 83.4025V55.6017L83.4029 27.8008L27.8013 27.8008L27.8013 83.4025Z" fill="#C4C4C4"/>
<path d="M83.4024 27.8008C83.4024 12.4468 70.9556 -5.33848e-05 55.6016 -5.33848e-05C40.2476 -5.33848e-05 27.8008 12.4468 27.8008 27.8008C27.8008 43.1547 40.2476 55.6016 55.6016 55.6016C70.9556 55.6016 83.4024 43.1547 83.4024 27.8008Z" fill="#C4C4C4"/>
</mask>
<g mask="url(#mask2)">
<path fill-rule="evenodd" clip-rule="evenodd" d="M55.602 55.6016L27.8012 55.6016L27.8012 27.8008H27.8008L27.8008 1.09435e-05L55.6016 1.09435e-05L55.6016 27.8008H55.602V55.6016Z" fill="black"/>
</g>
<mask id="mask3" mask-type="alpha" maskUnits="userSpaceOnUse" x="0" y="0" width="84" height="56">
<path d="M83.4023 55.8716L83.4023 0.269964L55.6015 0.269964L27.8007 0.269964L27.8007 55.8716L83.4023 55.8716Z" fill="#C4C4C4"/>
<path d="M27.8008 0.269844C12.4468 0.269844 -5.33848e-05 12.7167 -5.33848e-05 28.0707C-5.33848e-05 43.4246 12.4468 55.8715 27.8008 55.8715C43.1547 55.8715 55.6016 43.4246 55.6016 28.0707C55.6016 12.7167 43.1547 0.269844 27.8008 0.269844Z" fill="#C4C4C4"/>
</mask>
<g mask="url(#mask3)">
<path fill-rule="evenodd" clip-rule="evenodd" d="M55.6016 28.0707L55.6016 55.8715L27.8008 55.8715L27.8008 55.8714L-5.00916e-05 55.8714L-5.00916e-05 28.0706L27.8008 28.0706L27.8008 28.0707L55.6016 28.0707Z" fill="black"/>
</g>
<rect x="65" y="1" width="56" height="56" rx="28" fill="black"/>
<mask id="mask4" mask-type="alpha" maskUnits="userSpaceOnUse" x="0" y="64" width="84" height="56">
<path d="M83.4019 64.0796V119.681H55.601L27.8002 119.681L27.8002 64.0796H83.4019Z" fill="#C4C4C4"/>
<path d="M27.8007 119.681C12.4468 119.681 -6.33271e-05 107.234 -6.33271e-05 91.8804C-6.33271e-05 76.5264 12.4468 64.0796 27.8007 64.0796C43.1547 64.0796 55.6016 76.5264 55.6016 91.8804C55.6016 107.234 43.1547 119.681 27.8007 119.681Z" fill="#C4C4C4"/>
</mask>
<g mask="url(#mask4)">
<path fill-rule="evenodd" clip-rule="evenodd" d="M55.6016 91.8804V64.0796H27.8007L27.8007 91.8804L55.6016 91.8804ZM27.8003 91.8804L27.8003 64.0796H-0.000521612V91.8804H27.8003Z" fill="black"/>
</g>
<mask id="mask5" mask-type="alpha" maskUnits="userSpaceOnUse" x="0" y="63" width="84" height="56">
<path d="M83.4019 118.602L83.4019 63.0001L55.601 63.0001L27.8002 63.0001L27.8002 118.602L83.4019 118.602Z" fill="#C4C4C4"/>
<path d="M27.8007 63.0001C12.4468 63.0001 -6.94573e-05 75.4469 -6.94573e-05 90.8009C-6.94573e-05 106.155 12.4468 118.602 27.8007 118.602C43.1547 118.602 55.6016 106.155 55.6016 90.8009C55.6016 75.4469 43.1547 63.0001 27.8007 63.0001Z" fill="#C4C4C4"/>
</mask>
<g mask="url(#mask5)">
<path fill-rule="evenodd" clip-rule="evenodd" d="M55.6016 90.8009L55.6016 118.602L27.8007 118.602L27.8007 90.8009H55.6016ZM27.8003 90.8009L27.8003 118.602H-0.000521612L-0.000521612 90.8009L27.8003 90.8009Z" fill="black"/>
</g>
<mask id="mask6" mask-type="alpha" maskUnits="userSpaceOnUse" x="19" y="94" width="53" height="15">
<path d="M71.2817 108.04V94.1298H54.1874L37.0931 94.1298L37.0931 108.04L71.2817 108.04Z" fill="#C4C4C4"/>
<path d="M37.0932 94.1298C27.6522 94.1298 19.9988 97.2438 19.9988 101.085C19.9988 104.926 27.6522 108.04 37.0932 108.04C46.5341 108.04 54.1875 104.926 54.1875 101.085C54.1875 97.2438 46.5341 94.1298 37.0932 94.1298Z" fill="#C4C4C4"/>
</mask>
<g mask="url(#mask6)">
<path fill-rule="evenodd" clip-rule="evenodd" d="M63.0513 101.211L63.0513 115.029H39.7232V101.211L63.0513 101.211ZM16.3952 101.211H39.7232V115.029L16.3952 115.029L16.3952 101.211Z" fill="white"/>
</g>
</svg>
